<svg width="25" height="25" viewBox="0 0 25 25" fill="none" xmlns="http://www.w3.org/2000/svg">
<path d="M22.6568 25H2.34323C1.72244 24.9979 1.12771 24.7562 0.688743 24.3278C0.249778 23.8995 0.0021975 23.319 0 22.7132L0 4.58781C0.0021975 3.98198 0.249778 3.40157 0.688743 2.97318C1.12771 2.54479 1.72244 2.30317 2.34323 2.30103H4.50509V5.11475C4.50701 5.49098 4.5955 5.86199 4.764 6.20039C4.93251 6.53879 5.17673 6.83594 5.47865 7.06991C6.01868 7.49655 6.69242 7.72933 7.38722 7.72933C8.08202 7.72933 8.75576 7.49655 9.29578 7.06991C9.5977 6.83594 9.84193 6.53879 10.0104 6.20039C10.1789 5.86199 10.2674 5.49098 10.2693 5.11475V2.30103H14.6348V5.11475C14.6367 5.49098 14.7252 5.86199 14.8937 6.20039C15.0622 6.53879 15.3064 6.83594 15.6083 7.06991C16.1483 7.49655 16.8221 7.72933 17.5169 7.72933C18.2117 7.72933 18.8854 7.49655 19.4254 7.06991C19.7274 6.83594 19.9716 6.53879 20.1401 6.20039C20.3086 5.86199 20.3971 5.49098 20.399 5.11475V2.30103H22.6568C23.2772 2.30423 23.8713 2.54619 24.3101 2.97435C24.7488 3.40251 24.9967 3.98231 25 4.58781V22.7132C24.9983 23.3192 24.7509 23.8999 24.3119 24.3284C23.8728 24.7569 23.2777 24.9984 22.6568 25ZM17.4241 11.5499H20.7805C20.8921 11.5504 20.9992 11.593 21.0793 11.6689C21.1594 11.7447 21.2062 11.8479 21.21 11.9568V14.683C21.2062 14.7919 21.1594 14.8951 21.0793 14.9709C20.9992 15.0468 20.8921 15.0895 20.7805 15.0899H17.4241C17.3145 15.0869 17.2103 15.043 17.1328 14.9673C17.0553 14.8917 17.0103 14.79 17.0072 14.683V11.967C17.0098 11.8599 17.0546 11.7579 17.1322 11.6821C17.2098 11.6063 17.3144 11.5626 17.4241 11.5601V11.5499ZM10.8552 11.5499H14.2136C14.3232 11.553 14.4275 11.5968 14.505 11.6725C14.5825 11.7481 14.6274 11.8498 14.6306 11.9568V14.683C14.6269 14.7898 14.5818 14.8913 14.5044 14.9668C14.427 15.0424 14.3231 15.0864 14.2136 15.0899H10.8552C10.7456 15.0869 10.6413 15.043 10.5638 14.9673C10.4863 14.8917 10.4414 14.79 10.4382 14.683V11.967C10.4414 11.86 10.4863 11.7583 10.5638 11.6826C10.6413 11.607 10.7456 11.5631 10.8552 11.5601V11.5499ZM4.21739 11.5499H7.57588C7.68547 11.553 7.7897 11.5968 7.86722 11.6725C7.94474 11.7481 7.98968 11.8498 7.99283 11.9568V14.683C7.98919 14.7898 7.94409 14.8913 7.86667 14.9668C7.78926 15.0424 7.68531 15.0864 7.57588 15.0899H4.21739C4.10599 15.0894 3.99914 15.0467 3.9194 14.9708C3.83966 14.8949 3.79327 14.7917 3.79003 14.683V11.967C3.79275 11.8581 3.83897 11.7546 3.91883 11.6786C3.99868 11.6026 4.10583 11.56 4.21739 11.5601V11.5499ZM17.4241 17.3462H20.7805C20.8921 17.3467 20.9992 17.3893 21.0793 17.4652C21.1594 17.541 21.2062 17.6442 21.21 17.7531V20.4793C21.2094 20.5901 21.1639 20.6962 21.0835 20.7744C21.003 20.8525 20.8941 20.8964 20.7805 20.8964H17.4241C17.3128 20.8932 17.207 20.848 17.1292 20.7701C17.0514 20.6923 17.0077 20.5881 17.0072 20.4793V17.7633C17.0103 17.6563 17.0553 17.5546 17.1328 17.4789C17.2103 17.4033 17.3145 17.3594 17.4241 17.3564V17.3462ZM10.8552 17.3462H14.2136C14.3232 17.3493 14.4275 17.3931 14.505 17.4688C14.5825 17.5444 14.6274 17.6461 14.6306 17.7531V20.4793C14.6301 20.5881 14.5863 20.6923 14.5085 20.7701C14.4307 20.848 14.325 20.8932 14.2136 20.8964H10.8552C10.7438 20.8932 10.6381 20.848 10.5603 20.7701C10.4825 20.6923 10.4387 20.5881 10.4382 20.4793V17.7633C10.4419 17.6565 10.4869 17.555 10.5644 17.4795C10.6418 17.4039 10.7457 17.3599 10.8552 17.3564V17.3462ZM4.21739 17.3462H7.57588C7.68547 17.3493 7.7897 17.3931 7.86722 17.4688C7.94474 17.5444 7.98968 17.6461 7.99283 17.7531V20.4793C7.99233 20.5881 7.94857 20.6923 7.87077 20.7701C7.79298 20.848 7.68724 20.8932 7.57588 20.8964H4.21739C4.10422 20.8959 3.99583 20.8518 3.91581 20.7737C3.83578 20.6956 3.79057 20.5898 3.79003 20.4793V17.7633C3.79327 17.6546 3.83966 17.5514 3.9194 17.4755C3.99914 17.3996 4.10599 17.3568 4.21739 17.3564V17.3462ZM16.3859 0.905355C16.3859 0.406901 16.8863 0 17.5117 0C18.1371 0 18.6437 0.406901 18.6437 0.905355V5.11475C18.6437 5.61523 18.1392 6.0201 17.5117 6.0201C16.8842 6.0201 16.3818 5.6132 16.3818 5.11475V0.905355H16.3859ZM6.25417 0.905355C6.25417 0.406901 6.76284 0 7.38826 0C8.01368 0 8.51818 0.406901 8.51818 0.905355V5.11475C8.51818 5.61523 8.01368 6.0201 7.38826 6.0201C6.76284 6.0201 6.25417 5.61523 6.25417 5.11475V0.905355ZM0.7505 8.92334V22.4691C0.752149 22.9456 0.94684 23.4021 1.29209 23.739C1.63735 24.076 2.10514 24.266 2.5934 24.2676H22.3983C22.8869 24.2665 23.3552 24.0767 23.7009 23.7397C24.0466 23.4028 24.2416 22.9459 24.2432 22.4691V8.92334H0.7505Z" fill="#194E44"/>
</svg>
