<svg width="30" height="30" viewBox="0 0 30 30" fill="none" xmlns="http://www.w3.org/2000/svg">
<g filter="url(#filter0_i_193_89)">
<path d="M27.1881 30H2.81187C2.06693 29.9974 1.35325 29.7075 0.826492 29.1934C0.299734 28.6793 0.00263699 27.9829 0 27.2559L0 5.50537C0.00263699 4.77837 0.299734 4.08188 0.826492 3.56781C1.35325 3.05374 2.06693 2.7638 2.81187 2.76123H5.4061V6.1377C5.40842 6.58918 5.5146 7.03439 5.7168 7.44047C5.91901 7.84655 6.21208 8.20313 6.57438 8.48389C7.22241 8.99586 8.0309 9.2752 8.86466 9.2752C9.69842 9.2752 10.5069 8.99586 11.1549 8.48389C11.5172 8.20313 11.8103 7.84655 12.0125 7.44047C12.2147 7.03439 12.3209 6.58918 12.3232 6.1377V2.76123H17.5617V6.1377C17.564 6.58918 17.6702 7.03439 17.8724 7.44047C18.0746 7.84655 18.3677 8.20313 18.73 8.48389C19.378 8.99586 20.1865 9.2752 21.0203 9.2752C21.854 9.2752 22.6625 8.99586 23.3105 8.48389C23.6728 8.20313 23.9659 7.84655 24.1681 7.44047C24.3703 7.03439 24.4765 6.58918 24.4788 6.1377V2.76123H27.1881C27.9327 2.76508 28.6456 3.05543 29.1721 3.56922C29.6985 4.08302 29.9961 4.77877 30 5.50537V27.2559C29.998 27.9831 29.7011 28.6799 29.1742 29.1941C28.6473 29.7083 27.9333 29.9981 27.1881 30ZM20.9089 13.8599H24.9366C25.0706 13.8604 25.199 13.9116 25.2951 14.0026C25.3912 14.0937 25.4474 14.2175 25.452 14.3481V17.6196C25.4474 17.7503 25.3912 17.8741 25.2951 17.9651C25.199 18.0562 25.0706 18.1074 24.9366 18.1079H20.9089C20.7774 18.1042 20.6524 18.0516 20.5593 17.9608C20.4663 17.87 20.4124 17.748 20.4086 17.6196V14.3604C20.4118 14.2318 20.4655 14.1094 20.5587 14.0185C20.6518 13.9276 20.7772 13.8752 20.9089 13.8721V13.8599ZM13.0262 13.8599H17.0564C17.1879 13.8636 17.313 13.9162 17.406 14.007C17.499 14.0977 17.5529 14.2198 17.5567 14.3481V17.6196C17.5523 17.7478 17.4982 17.8695 17.4053 17.9602C17.3124 18.0508 17.1877 18.1036 17.0564 18.1079H13.0262C12.8947 18.1042 12.7696 18.0516 12.6766 17.9608C12.5836 17.87 12.5296 17.748 12.5259 17.6196V14.3604C12.5296 14.232 12.5836 14.11 12.6766 14.0192C12.7696 13.9284 12.8947 13.8758 13.0262 13.8721V13.8599ZM5.06087 13.8599H9.09106C9.22256 13.8636 9.34764 13.9162 9.44067 14.007C9.53369 14.0977 9.58762 14.2198 9.59139 14.3481V17.6196C9.58702 17.7478 9.53291 17.8695 9.44001 17.9602C9.34711 18.0508 9.22237 18.1036 9.09106 18.1079H5.06087C4.92719 18.1073 4.79897 18.0561 4.70328 17.965C4.60759 17.8739 4.55192 17.75 4.54803 17.6196V14.3604C4.5513 14.2297 4.60677 14.1056 4.70259 14.0143C4.79842 13.9231 4.927 13.872 5.06087 13.8721V13.8599ZM20.9089 20.8154H24.9366C25.0706 20.816 25.199 20.8672 25.2951 20.9582C25.3912 21.0492 25.4474 21.1731 25.452 21.3037V24.5752C25.4513 24.7082 25.3967 24.8355 25.3001 24.9292C25.2036 25.023 25.0729 25.0757 24.9366 25.0757H20.9089C20.7753 25.0719 20.6484 25.0176 20.5551 24.9242C20.4617 24.8308 20.4092 24.7057 20.4086 24.5752V21.3159C20.4124 21.1876 20.4663 21.0655 20.5593 20.9747C20.6524 20.884 20.7774 20.8313 20.9089 20.8276V20.8154ZM13.0262 20.8154H17.0564C17.1879 20.8191 17.313 20.8717 17.406 20.9625C17.499 21.0533 17.5529 21.1754 17.5567 21.3037V24.5752C17.5561 24.7057 17.5036 24.8308 17.4102 24.9242C17.3169 25.0176 17.19 25.0719 17.0564 25.0757H13.0262C12.8926 25.0719 12.7657 25.0176 12.6723 24.9242C12.579 24.8308 12.5264 24.7057 12.5259 24.5752V21.3159C12.5302 21.1878 12.5843 21.066 12.6772 20.9754C12.7701 20.8847 12.8949 20.8319 13.0262 20.8276V20.8154ZM5.06087 20.8154H9.09106C9.22256 20.8191 9.34764 20.8717 9.44067 20.9625C9.53369 21.0533 9.58762 21.1754 9.59139 21.3037V24.5752C9.5908 24.7057 9.53828 24.8308 9.44493 24.9242C9.35157 25.0176 9.22469 25.0719 9.09106 25.0757H5.06087C4.92506 25.075 4.795 25.0221 4.69897 24.9284C4.60293 24.8347 4.54869 24.7077 4.54803 24.5752V21.3159C4.55192 21.1855 4.60759 21.0617 4.70328 20.9706C4.79897 20.8795 4.92719 20.8282 5.06087 20.8276V20.8154ZM19.6631 1.08643C19.6631 0.488281 20.2635 0 21.014 0C21.7645 0 22.3724 0.488281 22.3724 1.08643V6.1377C22.3724 6.73828 21.767 7.22412 21.014 7.22412C20.261 7.22412 19.6581 6.73584 19.6581 6.1377V1.08643H19.6631ZM7.505 1.08643C7.505 0.488281 8.11541 0 8.86591 0C9.61641 0 10.2218 0.488281 10.2218 1.08643V6.1377C10.2218 6.73828 9.61641 7.22412 8.86591 7.22412C8.11541 7.22412 7.505 6.73828 7.505 6.1377V1.08643ZM0.9006 10.708V26.9629C0.902579 27.5347 1.13621 28.0825 1.55051 28.4868C1.96482 28.8912 2.52616 29.1192 3.11207 29.1211H26.8779C27.4643 29.1198 28.0263 28.8921 28.4411 28.4877C28.8559 28.0833 29.0899 27.5351 29.0919 26.9629V10.708H0.9006Z" fill="#37CBB0"/>
</g>
<defs>
<filter id="filter0_i_193_89" x="0" y="0" width="30" height="34" filterUnits="userSpaceOnUse" color-interpolation-filters="sRGB">
<feFlood flood-opacity="0" result="BackgroundImageFix"/>
<feBlend mode="normal" in="SourceGraphic" in2="BackgroundImageFix" result="shape"/>
<feColorMatrix in="SourceAlpha" type="matrix" values="0 0 0 0 0 0 0 0 0 0 0 0 0 0 0 0 0 0 127 0" result="hardAlpha"/>
<feOffset dy="4"/>
<feGaussianBlur stdDeviation="2"/>
<feComposite in2="hardAlpha" operator="arithmetic" k2="-1" k3="1"/>
<feColorMatrix type="matrix" values="0 0 0 0 0 0 0 0 0 0 0 0 0 0 0 0 0 0 0.25 0"/>
<feBlend mode="normal" in2="shape" result="effect1_innerShadow_193_89"/>
</filter>
</defs>
</svg>
