<svg width="30" height="30" viewBox="0 0 30 30" fill="none" xmlns="http://www.w3.org/2000/svg">
<path fill-rule="evenodd" clip-rule="evenodd" d="M1.39557 25.5215C5.73639 20.534 7.07917 19.0403 11.4273 14.0528C12.5162 11.961 13.0313 10.6369 14.0372 8.45892L14.5548 8.11121L16.2491 10.1251C16.2843 10.1659 16.3263 10.1983 16.3726 10.2204C16.4189 10.2425 16.4686 10.2539 16.5189 10.2539C16.5691 10.2539 16.6188 10.2425 16.6651 10.2204C16.7114 10.1983 16.7534 10.1659 16.7886 10.1251L17.1109 9.73569C17.1788 9.65536 17.2167 9.54818 17.2167 9.43666C17.2167 9.32515 17.1788 9.21797 17.1109 9.13764L15.4215 7.12929L15.5777 6.96518L17.3331 9.05975C17.3679 9.1008 17.4096 9.13345 17.4558 9.15575C17.5019 9.17804 17.5515 9.18953 17.6016 9.18953C17.6517 9.18953 17.7013 9.17804 17.7475 9.15575C17.7936 9.13345 17.8353 9.1008 17.8702 9.05975L18.1924 8.68145C18.2603 8.60111 18.2982 8.49394 18.2982 8.38242C18.2982 8.27091 18.2603 8.16373 18.1924 8.0834L16.4566 6.0222L16.6007 5.84139L18.3829 7.95822C18.4181 7.99901 18.4601 8.03141 18.5064 8.05352C18.5527 8.07564 18.6024 8.08703 18.6527 8.08703C18.7029 8.08703 18.7526 8.07564 18.7989 8.05352C18.8452 8.03141 18.8872 7.99901 18.9224 7.95822L19.2423 7.57714C19.3107 7.49714 19.349 7.38984 19.349 7.27811C19.349 7.16639 19.3107 7.05909 19.2423 6.97909L17.4551 4.86782L17.6065 4.70648L19.3887 6.82331C19.4236 6.86437 19.4653 6.89701 19.5114 6.91931C19.5576 6.9416 19.6072 6.95309 19.6573 6.95309C19.7074 6.95309 19.757 6.9416 19.8031 6.91931C19.8493 6.89701 19.891 6.86437 19.9258 6.82331L20.2481 6.44501C20.316 6.36467 20.3539 6.2575 20.3539 6.14598C20.3539 6.03447 20.316 5.92729 20.2481 5.84696L18.4732 3.73569L18.627 3.57436L20.4215 5.70231C20.4563 5.74336 20.498 5.77601 20.5442 5.79831C20.5903 5.8206 20.6399 5.83209 20.69 5.83209C20.7401 5.83209 20.7897 5.8206 20.8359 5.79831C20.882 5.77601 20.9237 5.74336 20.9586 5.70231L21.2808 5.32401C21.3487 5.24367 21.3866 5.1365 21.3866 5.02498C21.3866 4.91347 21.3487 4.80629 21.2808 4.72596L19.4766 2.58409L19.6378 2.4311L21.4542 4.58687C21.489 4.62793 21.5307 4.66057 21.5769 4.68287C21.623 4.70516 21.6726 4.71665 21.7227 4.71665C21.7728 4.71665 21.8224 4.70516 21.8686 4.68287C21.9147 4.66057 21.9564 4.62793 21.9913 4.58687L22.1182 4.43945C22.1861 4.35911 22.224 4.25193 22.224 4.14042C22.224 4.02891 22.1861 3.92173 22.1182 3.84139L20.2921 1.66893C20.5972 0.670322 20.7169 0.867819 20.0723 0.155719C19.8673 -0.0695941 19.7257 -0.0417777 19.5303 0.177972L13.1241 7.23221C11.9424 9.22109 11.3126 10.4144 10.2359 12.5173L9.96735 12.8233L0.104068 24.0862C0.0691527 24.1257 0.0414447 24.1728 0.0225374 24.2246C0.00363005 24.2763 -0.00610352 24.3319 -0.00610352 24.388C-0.00610352 24.4441 0.00363005 24.4996 0.0225374 24.5514C0.0414447 24.6032 0.0691527 24.6502 0.104068 24.6898L0.868228 25.5243C0.936893 25.6024 1.02997 25.6463 1.12702 25.6463C1.22406 25.6463 1.31714 25.6024 1.38581 25.5243L1.39557 25.5215ZM20.0772 14.9707C20.0612 15.0921 20.0051 15.2019 19.9205 15.2777C19.8358 15.3535 19.7289 15.3896 19.6216 15.3786C19.5144 15.3675 19.4149 15.3103 19.3434 15.2184C19.272 15.1266 19.2341 15.0072 19.2374 14.8845C19.2741 14.4421 19.4282 14.0229 19.6793 13.6828C19.9247 13.3423 20.2577 13.0981 20.6314 12.9846C20.6872 12.9588 20.7471 12.9469 20.8073 12.9496C20.8674 12.9523 20.9263 12.9696 20.9801 13.0004C21.0339 13.0312 21.0813 13.0747 21.1191 13.1281C21.1569 13.1814 21.1843 13.2434 21.1994 13.3098C21.2145 13.3761 21.2169 13.4454 21.2066 13.513C21.1963 13.5805 21.1734 13.6448 21.1395 13.7015C21.1056 13.7581 21.0615 13.8059 21.01 13.8415C20.9586 13.8772 20.9011 13.8999 20.8414 13.9082C20.639 13.9709 20.4589 14.1041 20.3262 14.2892C20.1888 14.4816 20.104 14.7156 20.0821 14.9624L20.0772 14.9707ZM19.9283 10.7983C20.834 10.6536 21.5982 10.9068 22.4405 11.2322C23.7418 11.7385 23.566 11.7885 24.8819 11.2628C25.6534 10.9485 26.2979 10.6842 27.1426 10.7065C28.8004 10.751 29.8721 11.9499 29.9893 13.8303C30.0338 15.1206 29.8818 16.4099 29.5401 17.6411C29.421 18.0829 29.28 18.5166 29.1177 18.9401C28.955 19.3463 28.7792 19.7487 28.5904 20.1474C28.6905 20.8789 28.754 21.5744 28.7906 22.2308C28.8272 22.8873 28.8321 23.5465 28.8126 24.1502C28.793 24.7538 28.7515 25.349 28.6905 25.8831C28.6295 26.4172 28.5538 26.9151 28.4708 27.3574C28.3902 27.8012 28.2775 28.2366 28.1339 28.6592C28.0291 28.9808 27.8799 29.2813 27.692 29.5493V29.5493C27.604 29.6601 27.501 29.754 27.3868 29.8275C27.275 29.9021 27.1497 29.9467 27.0206 29.9582V29.9582C26.8829 29.967 26.7457 29.9344 26.6226 29.8636C26.4916 29.7868 26.3761 29.6797 26.2833 29.5493C26.1083 29.2863 25.9745 28.9908 25.8878 28.6759C25.7599 28.2382 25.662 27.79 25.5948 27.3351C25.5508 27.057 25.524 26.7204 25.5093 26.5618L25.4947 26.4061C25.4044 25.3463 25.3116 24.2976 25.0455 23.5215C24.6426 22.3532 23.71 21.9276 22.8238 22.7287C22.6203 22.9168 22.4623 23.1609 22.3648 23.4381C22.2394 23.8157 22.1574 24.2103 22.1207 24.6119C22.0645 25.0737 22.0328 25.6022 21.9986 26.1808V26.2141C21.9986 26.2948 21.984 26.4561 21.9669 26.6703C21.9498 26.8845 21.9278 27.1265 21.8985 27.3296C21.8362 27.7891 21.7415 28.2421 21.6153 28.6842C21.5296 29.0061 21.3922 29.3069 21.21 29.5716V29.5716C21.1179 29.6976 21.0041 29.8008 20.8756 29.8748C20.7515 29.9452 20.6136 29.9778 20.4752 29.9694V29.9694C20.3478 29.9603 20.2241 29.9174 20.1138 29.8442C19.9875 29.7792 19.8725 29.6887 19.7745 29.5771C19.5817 29.3078 19.4306 29.003 19.3277 28.6759C19.1861 28.2539 19.0783 27.8182 19.0054 27.3741C18.9338 26.9568 18.8712 26.4682 18.8174 25.9082C18.7686 25.3834 18.7304 24.7946 18.7027 24.1418C18.6783 23.5465 18.6661 22.8975 18.6661 22.1947C18.6661 21.5438 18.6661 20.8511 18.7003 20.1196C18.5611 19.7607 18.4317 19.3991 18.3096 19.0347C18.1876 18.6703 18.0655 18.2781 17.963 17.897C17.6456 16.7287 17.2647 14.7621 17.4283 13.5438C17.5274 12.8391 17.8244 12.1901 18.2747 11.6941C18.7251 11.1981 19.3044 10.8818 19.9258 10.7927L19.9283 10.7983ZM20.0601 11.8831C19.6454 11.9396 19.2581 12.1481 18.9564 12.4772C18.6548 12.8064 18.4552 13.2383 18.3878 13.7079V13.7079C18.212 15.0458 18.8052 17.4075 19.23 18.6759C19.357 19.0486 19.4913 19.4186 19.6329 19.7885C19.6475 19.8259 19.6581 19.8651 19.6646 19.9054C19.6682 19.9451 19.6682 19.9852 19.6646 20.025C19.6402 20.7779 19.628 21.4844 19.628 22.1446C19.628 22.8372 19.6426 23.4826 19.6671 24.0917C19.6915 24.7037 19.7281 25.2656 19.7769 25.7607C19.8257 26.2559 19.8843 26.751 19.9551 27.1515C20.0105 27.5147 20.0922 27.8719 20.1993 28.2197C20.2702 28.4457 20.3742 28.6564 20.5069 28.8428C20.6035 28.6705 20.6775 28.4831 20.7266 28.2865C20.8235 27.922 20.8977 27.5502 20.9488 27.1738C20.9976 26.8317 21.0294 26.3393 21.0391 26.1585V26.1251C21.0757 25.5104 21.1099 24.9485 21.1734 24.4367C21.2228 23.956 21.327 23.4847 21.4835 23.0347V23.018C21.7003 22.3974 22.1082 21.888 22.6309 21.5855C22.9805 21.3491 23.38 21.2257 23.7865 21.2287C24.193 21.2316 24.5911 21.3607 24.9381 21.6022C25.355 21.9047 25.6785 22.3482 25.8633 22.8706C26.2344 23.8219 26.3516 25.0709 26.4517 26.3282V26.4756C26.4517 26.6091 26.4859 26.8901 26.5299 27.171C26.5887 27.5478 26.6703 27.9196 26.774 28.2837C26.8207 28.4733 26.8915 28.6541 26.984 28.8205C27.1058 28.6326 27.2013 28.4243 27.2672 28.203C27.3819 27.8537 27.4725 27.4947 27.5382 27.1293C27.6187 26.7037 27.692 26.2392 27.7457 25.7385C27.7994 25.2378 27.8433 24.6954 27.8604 24.114C27.8775 23.5326 27.8604 22.9095 27.836 22.2447C27.7965 21.541 27.7256 20.8401 27.6236 20.1446C27.6138 20.0792 27.6138 20.0125 27.6236 19.9471C27.6342 19.8823 27.6549 19.8201 27.6846 19.7635C27.8889 19.3745 28.07 18.9702 28.2266 18.5535C28.7989 17.1038 29.0744 15.5248 29.0323 13.936C29.019 13.6842 28.9805 13.4351 28.9175 13.1933C28.6734 12.2698 27.941 11.833 27.1256 11.8025C26.4273 11.7858 25.8658 12.0278 25.2237 12.2892C24.8428 12.4422 24.5645 12.5674 24.3424 12.6286C24.1354 12.7037 23.9199 12.744 23.7027 12.7482C23.3046 12.7094 22.9143 12.6006 22.5455 12.4255C21.7496 12.1112 20.9244 11.7468 20.0674 11.8692L20.0601 11.8831Z" fill="#37CBB0"/>
</svg>
