<svg width="25" height="25" viewBox="0 0 25 25" fill="none" xmlns="http://www.w3.org/2000/svg">
<path fill-rule="evenodd" clip-rule="evenodd" d="M1.16294 21.2679C4.78029 17.1116 5.89927 15.8668 9.52272 11.7106C10.4301 9.96744 10.8594 8.86405 11.6976 7.04903L12.1289 6.75928L13.5409 8.43754C13.5702 8.47153 13.6052 8.49852 13.6438 8.51695C13.6824 8.53538 13.7238 8.54487 13.7657 8.54487C13.8075 8.54487 13.849 8.53538 13.8876 8.51695C13.9262 8.49852 13.9611 8.47153 13.9905 8.43754L14.259 8.11301C14.3156 8.04606 14.3472 7.95675 14.3472 7.86382C14.3472 7.77089 14.3156 7.68158 14.259 7.61463L12.8512 5.94101L12.9814 5.80425L14.4442 7.54973C14.4732 7.58394 14.508 7.61114 14.5464 7.62972C14.5849 7.6483 14.6262 7.65788 14.668 7.65788C14.7097 7.65788 14.7511 7.6483 14.7895 7.62972C14.828 7.61114 14.8628 7.58394 14.8918 7.54973L15.1603 7.23448C15.2169 7.16753 15.2485 7.07822 15.2485 6.98529C15.2485 6.89236 15.2169 6.80304 15.1603 6.7361L13.7138 5.01843L13.8338 4.86776L15.319 6.63179C15.3484 6.66578 15.3834 6.69278 15.422 6.7112C15.4606 6.72963 15.502 6.73912 15.5438 6.73912C15.5857 6.73912 15.6271 6.72963 15.6657 6.7112C15.7043 6.69278 15.7393 6.66578 15.7687 6.63179L16.0352 6.31422C16.0922 6.24755 16.1241 6.15813 16.1241 6.06503C16.1241 5.97192 16.0922 5.8825 16.0352 5.81584L14.5459 4.05645L14.6721 3.922L16.1572 5.68603C16.1863 5.72024 16.221 5.74744 16.2595 5.76602C16.2979 5.7846 16.3393 5.79418 16.381 5.79418C16.4228 5.79418 16.4641 5.7846 16.5026 5.76602C16.541 5.74744 16.5758 5.72024 16.6048 5.68603L16.8734 5.37078C16.93 5.30383 16.9616 5.21452 16.9616 5.12159C16.9616 5.02866 16.93 4.93934 16.8734 4.8724L15.3943 3.11301L15.5225 2.97856L17.0178 4.75186C17.0469 4.78607 17.0816 4.81328 17.1201 4.83186C17.1585 4.85044 17.1999 4.86001 17.2416 4.86001C17.2834 4.86001 17.3247 4.85044 17.3632 4.83186C17.4016 4.81328 17.4364 4.78607 17.4654 4.75186L17.734 4.43661C17.7906 4.36966 17.8222 4.28035 17.8222 4.18742C17.8222 4.09449 17.7906 4.00518 17.734 3.93823L16.2305 2.15334L16.3648 2.02585L17.8784 3.82233C17.9075 3.85654 17.9422 3.88374 17.9807 3.90232C18.0191 3.9209 18.0605 3.93048 18.1022 3.93048C18.144 3.93048 18.1853 3.9209 18.2238 3.90232C18.2622 3.88374 18.297 3.85654 18.326 3.82233L18.4318 3.69947C18.4884 3.63253 18.52 3.54321 18.52 3.45028C18.52 3.35736 18.4884 3.26804 18.4318 3.2011L16.91 1.39071C17.1643 0.558536 17.264 0.723116 16.7269 0.1297C16.556 -0.0580612 16.438 -0.0348809 16.2752 0.148244L10.9367 6.02678C9.952 7.68417 9.4271 8.67861 8.52988 10.431L8.30609 10.686L0.0866826 20.0718C0.0575866 20.1047 0.0344966 20.1439 0.0187405 20.1871C0.00298435 20.2302 -0.00512695 20.2765 -0.00512695 20.3233C-0.00512695 20.37 0.00298435 20.4163 0.0187405 20.4595C0.0344966 20.5026 0.0575866 20.5418 0.0866826 20.5748L0.723483 21.2702C0.780703 21.3353 0.858268 21.3719 0.93914 21.3719C1.02001 21.3719 1.09758 21.3353 1.1548 21.2702L1.16294 21.2679ZM16.731 12.4756C16.7176 12.5767 16.6709 12.6682 16.6003 12.7313C16.5298 12.7945 16.4407 12.8246 16.3513 12.8154C16.2619 12.8062 16.179 12.7585 16.1195 12.682C16.06 12.6054 16.0284 12.5059 16.0311 12.4037C16.0617 12.035 16.1901 11.6857 16.3993 11.4023C16.6039 11.1186 16.8814 10.9151 17.1928 10.8205C17.2393 10.799 17.2892 10.789 17.3393 10.7913C17.3895 10.7935 17.4386 10.808 17.4834 10.8336C17.5282 10.8593 17.5677 10.8956 17.5992 10.94C17.6307 10.9845 17.6535 11.0361 17.6661 11.0914C17.6787 11.1467 17.6807 11.2045 17.6721 11.2608C17.6635 11.3171 17.6445 11.3706 17.6162 11.4178C17.588 11.465 17.5512 11.5048 17.5083 11.5345C17.4655 11.5642 17.4176 11.5832 17.3678 11.5901C17.1991 11.6423 17.049 11.7534 16.9385 11.9076C16.824 12.0679 16.7533 12.263 16.735 12.4686L16.731 12.4756ZM16.6069 8.9985C17.3617 8.87796 17.9985 9.0889 18.7004 9.36011C19.7848 9.782 19.6383 9.82372 20.7349 9.38561C21.3778 9.12367 21.9149 8.90346 22.6188 8.922C24.0003 8.95909 24.8934 9.95817 24.9911 11.5252C25.0282 12.6004 24.9015 13.6749 24.6167 14.7009C24.5175 15.069 24.4 15.4304 24.2647 15.7834C24.1291 16.1218 23.9826 16.4572 23.8253 16.7894C23.9087 17.3991 23.9616 17.9786 23.9921 18.5256C24.0226 19.0727 24.0267 19.6221 24.0104 20.1251C23.9942 20.6281 23.9596 21.1241 23.9087 21.5692C23.8578 22.0143 23.7948 22.4292 23.7256 22.7978C23.6584 23.1676 23.5645 23.5304 23.4448 23.8826C23.3575 24.1506 23.2332 24.401 23.0766 24.6244C23.0033 24.7167 22.9174 24.795 22.8223 24.8562C22.7291 24.9183 22.6248 24.9556 22.5171 24.9651C22.4024 24.9724 22.288 24.9453 22.1855 24.8863C22.0763 24.8222 21.98 24.733 21.9027 24.6244C21.7568 24.4052 21.6453 24.1589 21.5731 23.8965C21.4665 23.5318 21.3849 23.1583 21.329 22.7792C21.2923 22.5474 21.27 22.2669 21.2577 22.1348L21.2455 22.005C21.1703 21.1218 21.093 20.2479 20.8712 19.6012C20.5355 18.6276 19.7583 18.273 19.0198 18.9405C18.8502 19.0972 18.7185 19.3007 18.6373 19.5316C18.5328 19.8464 18.4644 20.1752 18.4339 20.5099C18.3871 20.8947 18.3606 21.3351 18.3321 21.8172V21.845C18.3321 21.9123 18.3199 22.0467 18.3057 22.2252C18.2914 22.4037 18.2731 22.6054 18.2487 22.7746C18.1968 23.1575 18.1179 23.535 18.0127 23.9035C17.9413 24.1717 17.8268 24.4224 17.675 24.6429C17.5982 24.748 17.5034 24.834 17.3963 24.8956C17.2929 24.9543 17.1779 24.9815 17.0626 24.9744C16.9565 24.9669 16.8533 24.9311 16.7615 24.8701C16.6562 24.8159 16.5604 24.7405 16.4787 24.6476C16.3181 24.4231 16.1921 24.1691 16.1064 23.8965C15.9884 23.5448 15.8985 23.1817 15.8378 22.8117C15.7781 22.464 15.7259 22.0568 15.6812 21.5901C15.6405 21.1527 15.6086 20.6621 15.5855 20.1181C15.5652 19.6221 15.555 19.0812 15.555 18.4955C15.555 17.9531 15.555 17.3759 15.5835 16.7662C15.4675 16.4672 15.3597 16.1659 15.258 15.8622C15.1563 15.5585 15.0545 15.2317 14.9691 14.9141C14.7046 13.9405 14.3872 12.3017 14.5235 11.2864C14.6061 10.6992 14.8537 10.1584 15.2289 9.74501C15.6042 9.33166 16.087 9.0681 16.6048 8.99386L16.6069 8.9985ZM16.7167 9.90253C16.3711 9.9496 16.0484 10.1234 15.797 10.3976C15.5456 10.6719 15.3793 11.0318 15.3231 11.4232C15.1766 12.5381 15.671 14.5062 16.025 15.5632C16.1308 15.8738 16.2427 16.1821 16.3607 16.4904C16.3728 16.5215 16.3817 16.5542 16.3871 16.5877C16.3902 16.6209 16.3902 16.6543 16.3871 16.6874C16.3668 17.3148 16.3566 17.9036 16.3566 18.4538C16.3566 19.031 16.3688 19.5687 16.3892 20.0764C16.4095 20.5864 16.44 21.0546 16.4807 21.4672C16.5214 21.8798 16.5702 22.2924 16.6292 22.6262C16.6754 22.9288 16.7434 23.2265 16.8327 23.5163C16.8918 23.7047 16.9785 23.8802 17.089 24.0356C17.1695 23.892 17.2312 23.7358 17.2722 23.572C17.3528 23.2682 17.4147 22.9584 17.4573 22.6448C17.498 22.3597 17.5244 21.9494 17.5326 21.7987V21.7709C17.5631 21.2586 17.5916 20.7903 17.6445 20.3638C17.6856 19.9632 17.7725 19.5705 17.9028 19.1955V19.1816C18.0835 18.6644 18.4235 18.24 18.8591 17.9878C19.1504 17.7908 19.4833 17.688 19.8221 17.6905C20.1608 17.6929 20.4926 17.8006 20.7817 18.0017C21.1291 18.2539 21.3987 18.6234 21.5527 19.0588C21.862 19.8515 21.9597 20.8923 22.0431 21.9401V22.0629C22.0431 22.1742 22.0715 22.4083 22.1082 22.6425C22.1572 22.9565 22.2252 23.2663 22.3116 23.5697C22.3506 23.7277 22.4095 23.8784 22.4866 24.017C22.5881 23.8604 22.6677 23.6868 22.7226 23.5024C22.8182 23.2113 22.8937 22.9122 22.9484 22.6077C23.0156 22.253 23.0766 21.8659 23.1214 21.4487C23.1661 21.0314 23.2027 20.5794 23.217 20.0949C23.2312 19.6105 23.217 19.0912 23.1966 18.5372C23.1637 17.9508 23.1046 17.3667 23.0196 16.7871C23.0115 16.7326 23.0115 16.677 23.0196 16.6225C23.0285 16.5685 23.0457 16.5167 23.0705 16.4695C23.2407 16.1453 23.3916 15.8085 23.5222 15.4612C23.999 14.2531 24.2286 12.9373 24.1935 11.6132C24.1824 11.4035 24.1503 11.1958 24.0979 10.9943C23.8945 10.2247 23.2841 9.86081 22.6046 9.83531C22.0227 9.8214 21.5548 10.0231 21.0197 10.241C20.7023 10.3685 20.4704 10.4728 20.2853 10.5238C20.1128 10.5863 19.9332 10.6199 19.7522 10.6234C19.4205 10.5911 19.0952 10.5004 18.7879 10.3545C18.1246 10.0926 17.4369 9.78895 16.7228 9.89094L16.7167 9.90253Z" fill="#194E44"/>
</svg>
