<svg width="30" height="30" viewBox="0 0 30 30" fill="none" xmlns="http://www.w3.org/2000/svg">
<g clip-path="url(#clip0_193_97)" filter="url(#filter0_i_193_97)">
<path fill-rule="evenodd" clip-rule="evenodd" d="M4.56299 19.3148L14.4482 8.65145C14.9707 8.08814 15.0366 8.06445 15.5786 8.65145L25.437 19.3148V30.0097H18.1128V22.7841C18.1122 22.5491 18.0253 22.3238 17.8711 22.1576C17.7169 21.9914 17.508 21.8977 17.29 21.897H12.7148C12.4968 21.8977 12.2879 21.9914 12.1338 22.1576C11.9796 22.3238 11.8927 22.5491 11.8921 22.7841V30.0097H4.56787V19.3148H4.56299ZM14.6899 0.233441L0 15.1058L3.62305 17.1563L13.999 5.8744C14.8877 4.91099 14.8975 4.88993 15.7788 5.83228L26.377 17.1511L30 15.1005L15.2881 0.209751C15.0244 -0.0534766 14.9854 -0.0876961 14.6899 0.233441Z" fill="#37CBB0"/>
</g>
<defs>
<filter id="filter0_i_193_97" x="0" y="0" width="30" height="34" filterUnits="userSpaceOnUse" color-interpolation-filters="sRGB">
<feFlood flood-opacity="0" result="BackgroundImageFix"/>
<feBlend mode="normal" in="SourceGraphic" in2="BackgroundImageFix" result="shape"/>
<feColorMatrix in="SourceAlpha" type="matrix" values="0 0 0 0 0 0 0 0 0 0 0 0 0 0 0 0 0 0 127 0" result="hardAlpha"/>
<feOffset dy="4"/>
<feGaussianBlur stdDeviation="2"/>
<feComposite in2="hardAlpha" operator="arithmetic" k2="-1" k3="1"/>
<feColorMatrix type="matrix" values="0 0 0 0 0 0 0 0 0 0 0 0 0 0 0 0 0 0 0.25 0"/>
<feBlend mode="normal" in2="shape" result="effect1_innerShadow_193_97"/>
</filter>
<clipPath id="clip0_193_97">
<rect width="30" height="30" fill="white"/>
</clipPath>
</defs>
</svg>
