<svg width="25" height="25" viewBox="0 0 25 25" fill="none" xmlns="http://www.w3.org/2000/svg">
<g clip-path="url(#clip0_351_160)" filter="url(#filter0_i_351_160)">
<path fill-rule="evenodd" clip-rule="evenodd" d="M3.80249 16.0961L12.0402 7.20994C12.4756 6.74052 12.5305 6.72078 12.9822 7.20994L21.1975 16.0961V25.0085H15.094V18.9872C15.0935 18.7913 15.0211 18.6036 14.8926 18.4651C14.7641 18.3266 14.59 18.2485 14.4084 18.2479H10.5957C10.414 18.2485 10.2399 18.3266 10.1115 18.4651C9.98302 18.6036 9.91061 18.7913 9.91008 18.9872V25.0085H3.80656V16.0961H3.80249ZM12.2416 0.194941L0 12.5886L3.01921 14.2973L11.6659 4.89574C12.4064 4.0929 12.4146 4.07535 13.149 4.86064L21.9808 14.2929L25 12.5842L12.7401 0.175199C12.5203 -0.0441569 12.4878 -0.0726732 12.2416 0.194941V0.194941Z" fill="#194E44"/>
</g>
<defs>
<filter id="filter0_i_351_160" x="0" y="0" width="25" height="29" filterUnits="userSpaceOnUse" color-interpolation-filters="sRGB">
<feFlood flood-opacity="0" result="BackgroundImageFix"/>
<feBlend mode="normal" in="SourceGraphic" in2="BackgroundImageFix" result="shape"/>
<feColorMatrix in="SourceAlpha" type="matrix" values="0 0 0 0 0 0 0 0 0 0 0 0 0 0 0 0 0 0 127 0" result="hardAlpha"/>
<feOffset dy="4"/>
<feGaussianBlur stdDeviation="2"/>
<feComposite in2="hardAlpha" operator="arithmetic" k2="-1" k3="1"/>
<feColorMatrix type="matrix" values="0 0 0 0 0 0 0 0 0 0 0 0 0 0 0 0 0 0 0.25 0"/>
<feBlend mode="normal" in2="shape" result="effect1_innerShadow_351_160"/>
</filter>
<clipPath id="clip0_351_160">
<rect width="25" height="25" fill="white"/>
</clipPath>
</defs>
</svg>
