<svg width="38" height="38" viewBox="0 0 38 38" fill="none" xmlns="http://www.w3.org/2000/svg">
<path d="M19 0C24.2479 0 28.9979 2.1276 32.4336 5.56641C35.8724 9.00521 38 13.7552 38 19C38 24.2479 35.8724 28.9979 32.4336 32.4336C28.9948 35.8724 24.2448 38 19 38C13.7521 38 9.00212 35.8724 5.56641 32.4336C2.1276 28.9979 0 24.2479 0 19C0 13.7521 2.1276 9.00212 5.56641 5.56641C9.00212 2.1276 13.7521 0 19 0ZM13.0811 12.2059H17.2837V25.7972H13.0811V12.2059ZM20.7163 12.2059H24.9189V25.7972H20.7163V12.2059ZM30.1266 7.87337C27.2785 5.02523 23.3449 3.26563 19 3.26563C14.6551 3.26563 10.7184 5.02832 7.87337 7.87337C5.02523 10.7215 3.26563 14.6551 3.26563 19C3.26563 23.3449 5.02832 27.2816 7.87337 30.1266C10.7215 32.9748 14.6551 34.7344 19 34.7344C23.3449 34.7344 27.2816 32.9717 30.1266 30.1266C32.9748 27.2785 34.7344 23.3449 34.7344 19C34.7344 14.6551 32.9748 10.7184 30.1266 7.87337Z" fill="white" fill-opacity="0.7"/>
</svg>
