<svg width="38" height="38" viewBox="0 0 38 38" fill="none" xmlns="http://www.w3.org/2000/svg">
<path fill-rule="evenodd" clip-rule="evenodd" d="M19 0C29.4927 0 38 8.50732 38 19C38 29.4927 29.4927 38 19 38C8.50732 38 0 29.4927 0 19C0 8.50732 8.50732 0 19 0ZM25.7632 20.1751C26.7311 19.5505 26.728 18.8547 25.7632 18.3011L15.7653 12.5553C14.9767 12.0605 14.1541 12.3512 14.1758 13.381L14.2067 24.9932C14.2747 26.1095 14.9118 26.4157 15.8519 25.8993L25.7632 20.1751ZM19 3.85938C27.362 3.85938 34.1406 10.638 34.1406 19C34.1406 27.362 27.362 34.1406 19 34.1406C10.638 34.1406 3.85938 27.362 3.85938 19C3.85938 10.638 10.638 3.85938 19 3.85938Z" fill="white" fill-opacity="0.7"/>
</svg>
