<svg width="38" height="38" viewBox="0 0 38 38" fill="none" xmlns="http://www.w3.org/2000/svg">
<g clip-path="url(#clip0_227_4)">
<path d="M32.8417 7.10897C33.3922 7.81671 33.9025 8.56608 34.4065 9.49799C36.2589 12.9054 37.0413 16.7771 36.7228 20.5592C36.4104 24.2548 35.0436 27.8703 32.5882 30.8934C31.7068 31.979 30.7605 32.9366 29.7648 33.766C26.3291 36.6258 22.2563 38.038 18.1959 37.9996C14.1355 37.958 10.0906 36.4688 6.71057 33.5226C5.72408 32.6644 4.79943 31.6876 3.9552 30.5988C1.97294 28.0497 0.698849 25.0618 0.21952 21.9074C-0.253625 18.8106 0.0370653 15.557 1.1689 12.409C2.24817 9.41472 3.89644 6.7471 6.04878 4.65591C8.09598 2.66721 10.604 1.2037 13.5078 0.473544C14.4169 0.246171 15.3447 0.0956573 16.2879 0.0348111C17.2342 -0.0292374 18.2021 -0.00682043 19.1948 0.105265C19.8164 0.175718 20.2648 0.755357 20.1967 1.39905C20.1287 2.04273 19.569 2.50709 18.9474 2.43663C18.0877 2.33736 17.2496 2.31814 16.4301 2.37258C15.6106 2.42702 14.8128 2.55512 14.0397 2.74727C11.5317 3.37494 9.37007 4.6399 7.59501 6.36281C5.69934 8.20741 4.24279 10.5676 3.28414 13.2256C2.29146 15.9829 2.03479 18.8331 2.44917 21.5391C2.86975 24.29 3.98303 26.9 5.71171 29.1289C6.47554 30.112 7.29504 30.9799 8.15783 31.7324C11.1235 34.3168 14.6613 35.6234 18.2083 35.6586C21.7553 35.6938 25.3209 34.4545 28.3391 31.9406C29.236 31.1944 30.0771 30.3458 30.8533 29.3883C32.9933 26.7559 34.1839 23.5951 34.4591 20.3574C34.7405 17.0365 34.0509 13.6355 32.4274 10.6445C31.9357 9.74137 31.4347 9.02082 30.878 8.3259L30.7141 13.0335C30.6925 13.6804 30.1699 14.1863 29.5452 14.1607C28.9205 14.1383 28.4319 13.5971 28.4567 12.9502L28.7195 5.45012C28.7412 4.80323 29.2638 4.29724 29.8885 4.32286C29.9287 4.32286 29.9658 4.32927 30.0029 4.33247L37.0227 5.35404C37.6412 5.44371 38.0742 6.03296 37.9876 6.67665C37.901 7.31713 37.332 7.76547 36.7104 7.6758L32.8417 7.10897Z" fill="white" fill-opacity="0.7"/>
</g>
<defs>
<clipPath id="clip0_227_4">
<rect width="38" height="38" fill="white"/>
</clipPath>
</defs>
</svg>
