<svg width="25" height="25" viewBox="0 0 25 25" fill="none" xmlns="http://www.w3.org/2000/svg">
<path fill-rule="evenodd" clip-rule="evenodd" d="M17.8962 13.3606C18.9032 13.3633 19.8907 13.6124 20.755 14.0816C21.6192 14.5508 22.3282 15.2228 22.8073 16.0269C23.2864 16.8311 23.5179 17.7376 23.4774 18.651C23.437 19.5645 23.1261 20.4512 22.5775 21.2179L25 23.6145L23.3283 25L20.9932 22.6685C20.2656 23.1123 19.4334 23.395 18.5636 23.4938C17.6937 23.5925 16.8105 23.5046 15.985 23.237C15.1594 22.9694 14.4145 22.5297 13.8102 21.9532C13.2058 21.3767 12.759 20.6794 12.5055 19.9176C12.252 19.1557 12.199 18.3505 12.3506 17.5667C12.5023 16.7828 12.8545 16.0422 13.3788 15.4045C13.9032 14.7667 14.5851 14.2495 15.3696 13.8945C16.1542 13.5395 17.0196 13.3567 17.8962 13.3606ZM4.2578 13.4135C4.0967 13.4056 3.94545 13.3406 3.83651 13.2326C3.72757 13.1246 3.66964 12.9821 3.67515 12.8357C3.67124 12.7629 3.68325 12.6902 3.71048 12.6217C3.73771 12.5532 3.77962 12.4902 3.83379 12.4365C3.88797 12.3828 3.95333 12.3393 4.02611 12.3087C4.09889 12.278 4.17763 12.2608 4.2578 12.2579H11.7896C11.9505 12.2663 12.1014 12.3314 12.2103 12.4393C12.3191 12.5472 12.3772 12.6895 12.3723 12.8357C12.3762 12.9084 12.3642 12.9812 12.3369 13.0497C12.3097 13.1182 12.2678 13.1811 12.2136 13.2349C12.1594 13.2886 12.0941 13.332 12.0213 13.3627C11.9485 13.3934 11.8698 13.4106 11.7896 13.4135H4.2578ZM18.6805 3.51359H20.7691C21.164 3.51519 21.5422 3.65818 21.8217 3.91151C22.1011 4.16483 22.2592 4.50802 22.2616 4.86654V11.1532C22.2167 11.5784 21.0716 11.5824 20.973 11.1532V4.86654C20.9735 4.8413 20.9683 4.81624 20.9579 4.79283C20.9475 4.76942 20.9321 4.74813 20.9125 4.73022C20.8929 4.71225 20.8695 4.6981 20.8437 4.68865C20.8179 4.67921 20.7902 4.67466 20.7624 4.67529H18.6716V11.1532C18.5618 11.5377 17.6071 11.5967 17.392 11.1532V1.35498C17.3907 1.30499 17.3691 1.25719 17.3315 1.2207C17.3118 1.20292 17.2883 1.1889 17.2625 1.17946C17.2367 1.17003 17.2091 1.16537 17.1813 1.16577H1.49471C1.46691 1.16537 1.43931 1.17003 1.41353 1.17946C1.38774 1.1889 1.36429 1.20292 1.34457 1.2207C1.30587 1.25822 1.28426 1.30765 1.28406 1.35905V17.454C1.28426 17.5054 1.30587 17.5548 1.34457 17.5924C1.36429 17.6102 1.38774 17.6242 1.41353 17.6336C1.43931 17.643 1.46691 17.6477 1.49471 17.6473H10.026C10.6714 17.7063 10.6983 18.7195 10.026 18.809H4.85389V20.9676C4.85328 20.9929 4.85831 21.018 4.86868 21.0415C4.87905 21.0649 4.89454 21.0862 4.91423 21.1041C4.93391 21.1219 4.95738 21.136 4.98321 21.1454C5.00904 21.1548 5.03671 21.1594 5.06454 21.1589H10.026C10.4944 21.2077 10.6445 22.1761 10.026 22.3206H5.0735C4.87685 22.3204 4.68226 22.2842 4.50132 22.2143C4.32037 22.1444 4.15677 22.0422 4.02026 21.9137C3.87962 21.7891 3.7676 21.6404 3.69066 21.4763C3.61373 21.3122 3.57342 21.1358 3.57207 20.9574V18.809H1.49247C1.09719 18.8074 0.718599 18.6641 0.439089 18.4104C0.159579 18.1566 0.00176863 17.8129 0 17.454L0 1.35498C0.00142054 1.17782 0.0417967 1.0027 0.11876 0.839897C0.195723 0.677093 0.307723 0.529882 0.448189 0.406901C0.585241 0.279039 0.748947 0.177213 0.929771 0.107355C1.11059 0.0374975 1.30492 0.00100379 1.50143 0L17.1881 0C17.3847 0.000203238 17.5793 0.0363334 17.7602 0.106239C17.9412 0.176144 18.1048 0.278395 18.2413 0.406901C18.3817 0.531602 18.4936 0.680281 18.5706 0.844385C18.6475 1.00849 18.6879 1.18478 18.6895 1.36312V3.51359H18.6805ZM4.24211 5.37923C4.08122 5.37082 3.9303 5.30573 3.82148 5.19781C3.71266 5.08989 3.65453 4.94767 3.65947 4.80143C3.65555 4.72868 3.66756 4.65595 3.69479 4.58743C3.72202 4.51892 3.76393 4.45598 3.81811 4.40225C3.87228 4.34853 3.93765 4.30508 4.01042 4.27442C4.0832 4.24377 4.16194 4.2265 4.24211 4.22363H14.3107C14.472 4.23102 14.6236 4.29581 14.7326 4.40396C14.8417 4.51211 14.8994 4.65491 14.8933 4.80143C14.8972 4.87418 14.8852 4.94692 14.858 5.01543C14.8308 5.08395 14.7889 5.14689 14.7347 5.20061C14.6805 5.25434 14.6152 5.29778 14.5424 5.32844C14.4696 5.3591 14.3909 5.37636 14.3107 5.37923H4.24211ZM4.24211 9.39535C4.08142 9.38744 3.9305 9.32279 3.82163 9.2152C3.71275 9.10761 3.65455 8.96562 3.65947 8.81958C3.65555 8.74683 3.66756 8.67409 3.69479 8.60558C3.72202 8.53706 3.76393 8.47413 3.81811 8.4204C3.87228 8.36668 3.93765 8.32323 4.01042 8.29257C4.0832 8.26191 4.16194 8.24465 4.24211 8.24178H14.3107C14.472 8.24917 14.6236 8.31395 14.7326 8.4221C14.8417 8.53025 14.8994 8.67306 14.8933 8.81958C14.8972 8.89223 14.8852 8.96486 14.858 9.03326C14.8307 9.10166 14.7888 9.16446 14.7346 9.21802C14.6804 9.27158 14.615 9.31484 14.5422 9.34528C14.4694 9.37572 14.3907 9.39274 14.3107 9.39535H4.24211ZM16.9438 18.1641C16.8519 18.0318 16.6771 17.8487 16.6771 17.6921C16.6797 17.6411 16.699 17.592 16.7326 17.551C16.7661 17.5101 16.8123 17.4791 16.8654 17.4622C16.8654 17.3299 16.8497 17.1956 16.8497 17.0553C16.8497 16.9759 16.8497 16.8966 16.8497 16.8193C16.854 16.7783 16.8638 16.738 16.8788 16.6992C16.9463 16.4989 17.0943 16.3289 17.2934 16.2231C17.3635 16.1825 17.4387 16.1497 17.5175 16.1255C17.6587 16.0787 17.5914 15.8732 17.7416 15.8712C18.1924 15.9165 18.614 16.096 18.9405 16.3818C19.0884 16.5209 19.1732 16.7054 19.178 16.8986L19.1646 17.4784C19.1991 17.4851 19.2312 17.4996 19.2578 17.5206C19.2845 17.5416 19.3048 17.5684 19.317 17.5985C19.3663 17.7795 19.1579 18.0054 19.0615 18.1539C18.9651 18.3024 18.629 18.6544 18.629 18.6584C18.6307 18.683 18.6409 18.7065 18.6581 18.7256C19.1915 19.3888 20.7534 18.8761 20.7534 20.1965H15.2384C15.2384 18.8761 16.8071 19.3827 17.3337 18.7256C17.353 18.706 17.3662 18.6822 17.3718 18.6564C17.3718 18.6564 16.9774 18.2088 16.9416 18.158L16.9438 18.1641ZM17.9007 14.4206C18.7807 14.4214 19.6407 14.659 20.372 15.1035C21.1033 15.548 21.6731 16.1793 22.0092 16.9177C22.3454 17.6561 22.4329 18.4683 22.2607 19.2519C22.0884 20.0354 21.6642 20.755 21.0416 21.3196C20.419 21.8843 19.626 22.2687 18.7628 22.4243C17.8996 22.5799 17.005 22.4996 16.192 22.1937C15.3791 21.8877 14.6842 21.3698 14.1954 20.7055C13.7066 20.0411 13.4457 19.2601 13.4457 18.4611C13.4457 17.9301 13.5609 17.4044 13.7849 16.9139C14.0088 16.4234 14.337 15.9778 14.7508 15.6026C15.1645 15.2273 15.6557 14.9298 16.1962 14.727C16.7366 14.5242 17.3159 14.42 17.9007 14.4206Z" fill="#194E44"/>
</svg>
