<svg width="30" height="30" viewBox="0 0 30 30" fill="none" xmlns="http://www.w3.org/2000/svg">
<g filter="url(#filter0_i_193_85)">
<path fill-rule="evenodd" clip-rule="evenodd" d="M21.4754 16.0327C22.6838 16.036 23.8689 16.3348 24.906 16.8979C25.9431 17.461 26.7938 18.2674 27.3687 19.2323C27.9436 20.1973 28.2215 21.2851 28.1729 22.3812C28.1244 23.4774 27.7514 24.5415 27.093 25.4614L30 28.3374L27.9939 30L25.1918 27.2021C24.3187 27.7348 23.3201 28.074 22.2763 28.1925C21.2325 28.311 20.1726 28.2055 19.1819 27.8844C18.1912 27.5633 17.2974 27.0356 16.5722 26.3438C15.847 25.652 15.3108 24.8153 15.0066 23.9011C14.7024 22.9869 14.6387 22.0206 14.8208 21.08C15.0028 20.1394 15.4254 19.2507 16.0546 18.4853C16.6838 17.72 17.5021 17.0994 18.4436 16.6734C19.3851 16.2474 20.4235 16.028 21.4754 16.0327ZM5.10936 16.0962C4.91604 16.0867 4.73454 16.0088 4.60381 15.8791C4.47308 15.7495 4.40356 15.5785 4.41018 15.4028C4.40549 15.3155 4.4199 15.2282 4.45257 15.146C4.48525 15.0638 4.53554 14.9883 4.60055 14.9238C4.66556 14.8593 4.744 14.8072 4.83133 14.7704C4.91866 14.7336 5.01316 14.7129 5.10936 14.7095H14.1475C14.3406 14.7196 14.5217 14.7977 14.6523 14.9272C14.7829 15.0567 14.8526 15.2273 14.8467 15.4028C14.8514 15.4901 14.837 15.5774 14.8043 15.6596C14.7717 15.7419 14.7214 15.8174 14.6564 15.8818C14.5913 15.9463 14.5129 15.9985 14.4256 16.0352C14.3382 16.072 14.2437 16.0927 14.1475 16.0962H5.10936ZM22.4166 4.21631H24.9229C25.3968 4.21823 25.8507 4.38982 26.186 4.69381C26.5214 4.99779 26.711 5.40963 26.7139 5.83984V13.3838C26.6601 13.894 25.2859 13.8989 25.1676 13.3838V5.83984C25.1681 5.80956 25.162 5.77949 25.1495 5.7514C25.1371 5.7233 25.1185 5.69776 25.095 5.67627C25.0715 5.6547 25.0434 5.63772 25.0124 5.62638C24.9815 5.61505 24.9482 5.60959 24.9148 5.61035H22.4059V13.3838C22.2741 13.8452 21.1285 13.916 20.8704 13.3838V1.62598C20.8688 1.56599 20.843 1.50863 20.7978 1.46484C20.7741 1.4435 20.746 1.42668 20.715 1.41535C20.6841 1.40403 20.651 1.39845 20.6176 1.39893H1.79365C1.7603 1.39845 1.72717 1.40403 1.69623 1.41535C1.66529 1.42668 1.63715 1.4435 1.61348 1.46484C1.56705 1.50987 1.54111 1.56918 1.54087 1.63086V20.9448C1.54111 21.0065 1.56705 21.0658 1.61348 21.1108C1.63715 21.1322 1.66529 21.149 1.69623 21.1603C1.72717 21.1716 1.7603 21.1772 1.79365 21.1768H12.0312C12.8057 21.2476 12.8379 22.4634 12.0312 22.5708H5.82467V25.1611C5.82393 25.1915 5.82997 25.2216 5.84241 25.2497C5.85486 25.2779 5.87345 25.3034 5.89707 25.3249C5.92069 25.3463 5.94885 25.3632 5.97985 25.3745C6.01085 25.3858 6.04405 25.3913 6.07745 25.3906H12.0312C12.5932 25.4492 12.7734 26.6113 12.0312 26.7847H6.0882C5.85223 26.7844 5.61872 26.7411 5.40158 26.6572C5.18444 26.5733 4.98812 26.4506 4.82431 26.2964C4.65555 26.1469 4.52111 25.9685 4.4288 25.7716C4.33648 25.5746 4.28811 25.363 4.28648 25.1489V22.5708H1.79096C1.31662 22.5689 0.862318 22.3969 0.526906 22.0924C0.191494 21.7879 0.00212236 21.3755 0 20.9448L0 1.62598C0.00170465 1.41338 0.050156 1.20324 0.142512 1.00788C0.234867 0.812512 0.369267 0.635859 0.537827 0.488281C0.702289 0.334847 0.898736 0.212656 1.11573 0.128826C1.33271 0.044997 1.56591 0.00120455 1.80172 0L20.6257 0C20.8617 0.000243885 21.0952 0.0436001 21.3123 0.127486C21.5294 0.211373 21.7258 0.334074 21.8896 0.488281C22.0581 0.637922 22.1924 0.816337 22.2847 1.01326C22.377 1.21019 22.4255 1.42174 22.4274 1.63574V4.21631H22.4166ZM5.09053 6.45508C4.89747 6.44498 4.71636 6.36687 4.58578 6.23737C4.45519 6.10787 4.38543 5.93721 4.39136 5.76172C4.38667 5.67442 4.40107 5.58714 4.43375 5.50492C4.46642 5.4227 4.51672 5.34717 4.58173 5.2827C4.64674 5.21824 4.72518 5.1661 4.81251 5.12931C4.89984 5.09252 4.99433 5.0718 5.09053 5.06836H17.1728C17.3664 5.07722 17.5483 5.15497 17.6792 5.28475C17.81 5.41453 17.8793 5.58589 17.872 5.76172C17.8767 5.84902 17.8623 5.9363 17.8296 6.01852C17.7969 6.10074 17.7466 6.17626 17.6816 6.24073C17.6166 6.3052 17.5382 6.35734 17.4508 6.39413C17.3635 6.43092 17.269 6.45163 17.1728 6.45508H5.09053ZM5.09053 11.2744C4.8977 11.2649 4.7166 11.1873 4.58595 11.0582C4.4553 10.9291 4.38546 10.7587 4.39136 10.5835C4.38667 10.4962 4.40107 10.4089 4.43375 10.3267C4.46642 10.2445 4.51672 10.169 4.58173 10.1045C4.64674 10.04 4.72518 9.98788 4.81251 9.95109C4.89984 9.9143 4.99433 9.89358 5.09053 9.89014H17.1728C17.3664 9.899 17.5483 9.97674 17.6792 10.1065C17.81 10.2363 17.8793 10.4077 17.872 10.5835C17.8767 10.6707 17.8623 10.7578 17.8296 10.8399C17.7968 10.922 17.7465 10.9974 17.6815 11.0616C17.6164 11.1259 17.538 11.1778 17.4507 11.2143C17.3633 11.2509 17.2689 11.2713 17.1728 11.2744H5.09053ZM20.3326 21.7969C20.2223 21.6382 20.0125 21.4185 20.0125 21.2305C20.0157 21.1693 20.0388 21.1104 20.0791 21.0612C20.1193 21.0121 20.1748 20.9749 20.2384 20.9546C20.2384 20.7959 20.2196 20.6348 20.2196 20.4663C20.2196 20.3711 20.2196 20.2759 20.2196 20.1831C20.2248 20.134 20.2365 20.0856 20.2546 20.0391C20.3355 19.7987 20.5131 19.5947 20.7521 19.4678C20.8362 19.419 20.9265 19.3797 21.021 19.3506C21.1904 19.2944 21.1097 19.0479 21.2899 19.0454C21.8309 19.0998 22.3368 19.3152 22.7286 19.6582C22.9061 19.825 23.0078 20.0464 23.0136 20.2783L22.9975 20.9741C23.0389 20.9821 23.0774 20.9995 23.1094 21.0247C23.1414 21.0499 23.1658 21.0821 23.1804 21.1182C23.2395 21.3354 22.9894 21.6064 22.8738 21.7847C22.7582 21.9629 22.3548 22.3853 22.3548 22.3901C22.3569 22.4196 22.3691 22.4478 22.3897 22.4707C23.0298 23.2666 24.9041 22.6514 24.9041 24.2358H18.2861C18.2861 22.6514 20.1685 23.2593 20.8005 22.4707C20.8236 22.4473 20.8394 22.4186 20.8462 22.3877C20.8462 22.3877 20.3729 21.8506 20.3299 21.7896L20.3326 21.7969ZM21.4808 17.3047C22.5369 17.3057 23.5689 17.5908 24.4464 18.1242C25.324 18.6576 26.0077 19.4152 26.4111 20.3012C26.8145 21.1873 26.9195 22.162 26.7128 23.1022C26.5061 24.0425 25.997 24.9059 25.2499 25.5835C24.5028 26.2612 23.5512 26.7225 22.5154 26.9091C21.4795 27.0958 20.406 26.9995 19.4304 26.6324C18.4549 26.2653 17.6211 25.6438 17.0345 24.8466C16.4479 24.0493 16.1348 23.1121 16.1348 22.1533C16.1348 21.5162 16.2731 20.8853 16.5419 20.2967C16.8106 19.7081 17.2045 19.1734 17.7009 18.7231C18.1974 18.2728 18.7868 17.9157 19.4354 17.6724C20.084 17.429 20.779 17.304 21.4808 17.3047Z" fill="#37CBB0" fill-opacity="0.901042"/>
</g>
<defs>
<filter id="filter0_i_193_85" x="0" y="0" width="30" height="34" filterUnits="userSpaceOnUse" color-interpolation-filters="sRGB">
<feFlood flood-opacity="0" result="BackgroundImageFix"/>
<feBlend mode="normal" in="SourceGraphic" in2="BackgroundImageFix" result="shape"/>
<feColorMatrix in="SourceAlpha" type="matrix" values="0 0 0 0 0 0 0 0 0 0 0 0 0 0 0 0 0 0 127 0" result="hardAlpha"/>
<feOffset dy="4"/>
<feGaussianBlur stdDeviation="2"/>
<feComposite in2="hardAlpha" operator="arithmetic" k2="-1" k3="1"/>
<feColorMatrix type="matrix" values="0 0 0 0 0 0 0 0 0 0 0 0 0 0 0 0 0 0 0.25 0"/>
<feBlend mode="normal" in2="shape" result="effect1_innerShadow_193_85"/>
</filter>
</defs>
</svg>
